<?xml version="1.0" encoding="UTF-8"?>
<!DOCTYPE svg PUBLIC "-//W3C//DTD SVG 1.1//EN" "http://www.w3.org/Graphics/SVG/1.1/DTD/svg11.dtd">
<!-- Creator: CorelDRAW -->
<svg xmlns="http://www.w3.org/2000/svg" xml:space="preserve" width="213.43mm" height="69.25mm" version="1.1" style="shape-rendering:geometricPrecision; text-rendering:geometricPrecision; image-rendering:optimizeQuality; fill-rule:evenodd; clip-rule:evenodd"
viewBox="0 0 21343 6925"
 xmlns:xlink="http://www.w3.org/1999/xlink"
 xmlns:xodm="http://www.corel.com/coreldraw/odm/2003">
 <defs>
  <style type="text/css">
   <![CDATA[
    .fil8 {fill:#00295F}
    .fil7 {fill:#002C66}
    .fil4 {fill:#00367E}
    .fil3 {fill:#003B79}
    .fil5 {fill:#003B81}
    .fil1 {fill:#282929}
    .fil6 {fill:#292929}
    .fil0 {fill:#292A2E}
    .fil2 {fill:#2E2E2E}
   ]]>
  </style>
 </defs>
 <g id="Capa_x0020_1">
  <metadata id="CorelCorpID_0Corel-Layer"/>
  <g id="_1590129783360">
   <path class="fil0" d="M3121.81 3018.34l0 1587.5c0,251.14 -530.38,154.42 -776.11,211.67 -23.98,102.93 -103.21,317.5 70.55,317.5l1728.62 0c190.27,0 176.38,-224.86 176.38,-352.78 -802.29,0 -776.55,30.66 -776.11,-670.27 0.22,-352.78 0,-705.56 0,-1058.34 157.78,105.65 316.9,186.68 487.11,289 88.64,53.28 159.11,86.86 247.21,140.85 82.25,50.4 160.58,109.79 253.46,134.59 0,-464.57 43.5,-366.31 -416.32,-642.01 -186.67,-111.92 -1906.63,-1123.02 -2053.12,-1157.15 0,495 -42.85,351.17 469.74,659.15 308.07,185.1 588.59,261.73 588.59,540.29z"/>
   <path class="fil1" d="M8942.64 6263.89c249.72,0 478.32,-47.95 730.22,-81.17l2909 -336.55c860.22,-89.21 1465.92,-84.62 2323.88,-110.29l774.96 -36.43c710.79,0.03 1769.42,-18.82 2400.74,33.43l1163.41 36.02c194.49,-0.45 227.11,28.48 386.89,36.45l1517.01 70.49 -2192.8 -311.92c-1405.64,-143.97 -2661.08,-143.49 -4086.69,-146.73 -546.13,-1.25 -1076.98,74.54 -1587.45,105.87 -857.85,52.65 -2073.22,282.47 -2953.66,433.01l-1360.86 297.21c-5.6,2.06 -17.09,5.82 -24.65,10.61z"/>
   <path class="fil2" d="M4815.14 4147.23l-1164.16 -670.28 0 1093.61c125.14,83.8 55.51,105.84 246.94,105.84 170.05,0 105.83,-332.49 105.83,-493.89 169.73,45.32 766.85,458.61 846.67,458.61 252.84,0 352.78,34.82 352.78,-105.83l0 -2222.5c0,-108.61 -48.88,-105.84 -141.11,-105.84 -351.48,0 -246.95,482.59 -246.95,846.67 0,364.54 0,729.07 0,1093.61z"/>
   <path class="fil3" d="M2345.7 160.67l149.9 -34.29c-45.74,105.51 -30.31,-10.27 38.98,156.37 2.11,5.06 6.06,15.56 8.01,20.45l46.53 108.66c1.57,3.22 6.94,12.06 8.49,15.52l25.44 79.26c1.19,5.84 2.26,16.8 3.29,22.8l5.98 46.08c22.14,158.27 54.24,74.3 -12.68,185.05 243.4,-4.96 831.89,-143.21 1323.61,-45.33 717.31,142.78 889.95,317.72 1083.56,362.83 -41.6,-155.81 -313.95,-418.43 -437.69,-514.81 -534.09,-415.98 -1149.11,-611.53 -1851.06,-539.24 -160.73,16.56 -311.73,34.59 -392.36,136.65z"/>
   <path class="fil4" d="M7143.48 4283.18c-67.67,-72.76 -26.32,2.18 -58.76,-124.15l-197.81 9.95c-285.45,-79.81 -75.14,34.01 -242.7,-70.7 -88.82,-55.51 -101.52,55.39 -75.61,-197.99 -129.57,119.81 -94.38,476.64 -614.12,1174.61 -130.52,175.27 -262.51,319.85 -428.46,453.49 -83.9,67.56 -146.68,122.98 -237.51,185.82 -101.14,69.97 -198.2,110.24 -261.7,196.91 699.95,-15.6 1416.47,-456.7 1799.7,-987.24 94.95,-131.45 301.71,-446.14 316.97,-640.7z"/>
   <path class="fil1" d="M11905.98 2665.57c0,984.23 -131.5,846.66 1199.44,846.66 325.98,0 246.94,-264.62 246.94,-705.55l-740.83 0 0 246.94 458.61 0 0 211.67 -846.66 0 0 -705.56 846.66 0 0 141.11 282.22 -35.27 -35.27 -282.23c-318.42,-74.18 -819.29,-35.27 -1164.17,-35.27 -197.86,0 -246.94,121.95 -246.94,317.5z"/>
   <path class="fil5" d="M5626.53 1360.47c64.03,157.28 58.98,93.28 162.14,226.44 388.47,501.47 613.97,1222.06 613.97,1890.04l70.56 0c19.28,-231.71 571.71,-1122.3 -164.54,-2340.02 -76.41,-126.38 -116.04,-188.16 -223.34,-235.25 -44.48,173.36 -102.63,295.44 -303.23,412.72 -103.07,60.26 -45.77,64.68 -155.56,46.07z"/>
   <path class="fil4" d="M4652.86 6934.17l-208.4 -264.86c-110.72,-204.83 -13.71,-44.91 -9.53,-167.11 1.74,-50.72 19.66,-13.37 -20.82,-79.94 -47.54,-78.18 -28.62,-46.3 -89.31,-91.35 206.77,11.45 21.66,8.53 102.11,-67.02 -899.82,14.38 -1157.9,137.84 -2151.77,-388.05 34.42,128.88 170.64,270.33 267.87,367.13 689.58,686.58 1156.4,691.2 2109.85,691.2z"/>
   <path class="fil1" d="M20972.36 2841.95l-740.83 0 0 -282.22 740.83 0c35.11,165.77 15.51,95.82 0,282.22zm-1023.05 670.28l282.22 0 0 -423.33c394.69,0 303.43,16.49 572.54,274.12 185,177.1 223.07,149.21 556.35,149.21 -64.49,-178.15 -347.91,-272.23 -458.61,-423.33 354.79,0 388.05,-126.79 388.05,-423.33 0,-127.89 -29.62,-196.92 -70.55,-282.23 -323.66,-75.4 -911.96,-35.27 -1270,-35.27l0 1164.16z"/>
   <path class="fil4" d="M1146.08 5981.67c12.13,-137 9.31,-24.24 22.77,-71.23l262.58 -313.3c133.09,-98.99 5.68,-44.55 138.16,-103.44 -51.76,-209.85 -670.28,-729.55 -670.28,-2016.75 -195.3,143.1 -320.41,981.96 -268.59,1326.92 46.37,308.59 206.38,840.47 377.1,1066.74 88.41,117.18 -7.88,46.92 138.26,111.06z"/>
   <path class="fil5" d="M264.31 2462.73c76.06,79.31 231.31,69.81 403.44,120.23 97.13,28.46 54.99,29.51 154.93,53.4l6.25 99.76c145.42,-91.39 94.12,-165.43 288.3,-487.64 181.86,-301.76 432.11,-619.3 713.66,-838.55 115.24,-89.74 382.64,-247.77 444.25,-331.86 -643.66,0 -1334.17,404.4 -1688.8,851.19 -112.46,141.67 -280.71,334.87 -322.03,533.47z"/>
   <path class="fil1" d="M15469.03 3512.23l282.22 0 0 -740.83 760.75 579.81c181.59,145.62 122.08,161.02 403.42,161.02l0 -1164.16 -282.22 0 0 740.83c-142.41,-95.36 -886.17,-740.83 -987.78,-740.83l-176.39 0 0 1164.16z"/>
   <path class="fil1" d="M10000.98 3512.23l282.22 0 0 -740.83c101.04,26.98 170.79,106.72 251.62,171.71 89.37,71.87 160.34,129.74 253.23,205.39 337.8,275.11 399.04,363.73 659.31,363.73l0 -1164.16 -282.22 0 0 705.55c-111.61,-29.8 -163.61,-105.1 -251.87,-171.47 -88.56,-66.59 -152.22,-118.24 -237.15,-186.17 -81.42,-65.1 -156.99,-113.18 -240.74,-182.6 -224.7,-186.26 -174.56,-165.31 -434.4,-165.31l0 1164.16z"/>
   <path class="fil1" d="M13810.97 3406.4c0,81.28 24.55,105.83 105.84,105.83l1164.16 0 0 -246.94 -952.5 0 0 -246.95c614.34,0 564.45,49.45 564.45,-211.66l-564.45 0 0 -246.95 952.5 0 0 -211.66 -1270 0 0 1058.33z"/>
   <path class="fil6" d="M18855.7 2595.01c37.87,141.83 173.79,281.5 211.66,423.33l-458.61 0c16.56,-62.01 163.34,-362.07 246.95,-423.33zm-811.39 917.22l282.22 0c44.23,-83.58 81.81,-143.85 105.83,-246.94l811.39 0c24.02,103.09 61.61,163.36 105.84,246.94l317.49 0c-35.06,-150.51 -554.96,-946.24 -670.27,-1164.16l-317.5 0 -482.78 857.78c-67,110.93 -121.1,172.77 -152.22,306.38z"/>
   <path class="fil7" d="M828.93 2736.12l-6.25 -99.76c-99.94,-23.89 -57.8,-24.94 -154.93,-53.4 -172.13,-50.42 -327.38,-40.92 -403.44,-120.23l-111.42 196.92c-27.16,76.82 -48.33,143.93 -72.86,244.96 -52.03,214.24 -62.66,321.87 -62.66,607.62l670.27 0c31.71,-136.08 174.81,-676.1 141.29,-776.11z"/>
   <path class="fil7" d="M1146.08 5981.67c-2.72,44.16 -72.34,22.71 113.27,203.71 208.99,203.83 302.71,313.25 592.46,466.57 83.59,-157.97 304.65,-480.55 317.5,-635 -136.81,-36.53 -220.18,-160.64 -313.93,-250.51l-285.79 -272.74c-132.48,58.89 -5.07,4.45 -138.16,103.44l-262.58 313.3c-13.46,46.99 -10.64,-65.77 -22.77,71.23z"/>
   <path class="fil7" d="M4426.91 6263.89c-80.45,75.55 104.66,78.47 -102.11,67.02 60.69,45.05 41.77,13.17 89.31,91.35 40.48,66.57 22.56,29.22 20.82,79.94 -4.18,122.2 -101.19,-37.72 9.53,167.11l208.4 264.86c233.32,-6.18 666.06,-194.12 832.56,-282.22l-317.5 -599.72 -741.01 211.66z"/>
   <path class="fil1" d="M17021.25 4641.12l529.17 0c-2.52,113.05 11.49,176.39 -105.83,176.39l-317.5 0c-150.49,0 -48.99,-53.47 -105.84,-176.39zm105.84 -352.78l317.5 0c117.32,0 103.31,63.34 105.83,176.39l-529.17 0c56.85,-122.92 -44.65,-176.39 105.84,-176.39zm-317.5 670.28c973.39,0 952.5,78.61 952.5,-282.22 0,-97.6 -27.22,-84.85 -105.84,-105.84 151.63,-131.79 105.84,-15.63 105.84,-282.22 0,-226.7 -472.19,-141.11 -952.5,-141.11l0 811.39z"/>
   <path class="fil7" d="M5626.53 1360.47c109.79,18.61 52.49,14.19 155.56,-46.07 200.6,-117.28 258.75,-239.36 303.23,-412.72 -5.06,-204.33 -553.8,-542.72 -635.18,-564.45 -102.96,194.59 -216.64,373.85 -317.5,564.45 33.2,49.58 449.82,435.42 493.89,458.79z"/>
   <path class="fil1" d="M11941.25 4429.45c0,277.95 -23.08,235.08 35.28,352.78 -128.7,59.52 -451.98,-3.49 -635,35.28l0 -493.89 635 0c-24.18,43.03 -35.28,37.73 -35.28,105.83zm-811.39 -246.94c-78.3,941.01 -161.76,776.11 917.23,776.11 227.17,0 140.98,-625.22 105.83,-776.11 -209.89,-48.9 -830.43,-74.77 -1023.06,0z"/>
   <path class="fil1" d="M14692.92 4817.51l-176.39 0 0 -493.89 423.33 0c100.11,0 176.39,121.77 176.39,211.67 0,239.63 -185.75,282.22 -423.33,282.22zm-423.33 141.11c706.76,0 1058.33,111.14 1058.33,-458.61 0,-444.17 -684.44,-352.78 -1058.33,-352.78l0 811.39z"/>
   <path class="fil1" d="M20337.36 4288.34c0,423.03 -57.24,352.78 740.84,352.78 -5.43,243.49 -29.8,176.39 -599.73,176.39l0 -105.84c-270.08,0 -213.89,246.95 -70.55,246.95 977.03,0 846.66,96.33 846.66,-352.78 0,-211.57 -354.43,-141.11 -740.83,-141.11l0 -141.11c122.84,0 310.43,-11.58 425.13,-0.85 294.99,27.59 33.78,101.81 315.7,36.13 -7.92,-95.26 -16.54,-95.97 -35.27,-176.39 -135.48,-31.56 -881.95,-144.66 -881.95,105.83z"/>
   <path class="fil1" d="M9083.75 3512.23l246.95 0c81.28,0 105.83,-24.55 105.83,-105.83l0 -1305.28 -352.78 0 0 1411.11z"/>
   <path class="fil1" d="M9754.03 4958.62l211.67 0 0 -493.89c138.84,73.46 237.27,168.52 363.86,271.14 226.51,183.61 210.6,222.75 447.53,222.75l0 -811.39 -176.39 0 0 529.17c-375.48,-251.44 -566.19,-529.17 -846.67,-529.17l0 811.39z"/>
   <path class="fil8" d="M6568.6 3900.29c-25.91,253.38 -13.21,142.48 75.61,197.99 167.56,104.71 -42.75,-9.11 242.7,70.7l197.81 -9.95c32.44,126.33 -8.91,51.39 58.76,124.15 70.93,-92.26 86.86,-230.08 110.01,-343.42 32.05,-156.88 31.1,-262.21 31.1,-462.81l-670.28 0c-13.22,158.91 -85.54,268.5 -45.71,423.34z"/>
   <path class="fil1" d="M19137.92 4958.62l917.22 0 0 -141.11c-720.73,0 -700.37,56.4 -705.55,-176.39 414.41,0 386.55,31.89 423.33,-105.83 -70.52,-101.47 -12.21,-70.56 -423.33,-70.56l0 -141.11c590.29,0 660.75,61.94 705.55,-105.83 -41.32,-59.46 -5.06,-70.56 -105.83,-70.56l-811.39 0 0 811.39z"/>
   <path class="fil8" d="M2619.64 760.57c66.92,-110.75 34.82,-26.78 12.68,-185.05l-5.98 -46.08c-1.03,-6 -2.1,-16.96 -3.29,-22.8l-25.44 -79.26c-1.55,-3.46 -6.92,-12.3 -8.49,-15.52l-46.53 -108.66c-1.95,-4.89 -5.9,-15.39 -8.01,-20.45 -69.29,-166.64 -84.72,-50.86 -38.98,-156.37l-149.9 34.29c-166.06,-55.66 -394.78,105.46 -529.17,176.56l352.78 599.73 428.89 -165.09c4.48,-2.05 14.96,-6.47 21.44,-11.3z"/>
   <path class="fil1" d="M12823.2 4535.29l-395.85 415.61c444.6,15.77 206.87,-53.46 536.96,-274.5 226.81,338.7 330.49,282.22 564.44,282.22 -72.08,-107.64 -284.01,-215.28 -423.33,-423.33 92.29,-137.83 270.8,-213.16 317.5,-388.06 -432.74,0 -231.12,80.26 -458.61,246.94 -265.22,-177.59 -80.43,-246.94 -529.17,-246.94 32.84,122.98 86.64,144.98 176.05,212.01 85.67,64.21 126.93,119.07 212.01,176.05z"/>
   <path class="fil1" d="M15998.2 4358.9l70.55 0c22.9,85.73 97.71,200.2 141.11,282.22l-317.5 0c31.36,-134.6 74.48,-147.63 105.84,-282.22zm-529.17 599.72l211.67 0c113.85,-215.16 56.78,-176.39 529.16,-176.39 114.92,0 136.04,100.12 176.39,176.39l246.95 0 -493.89 -811.39 -211.67 0 -458.61 811.39z"/>
   <polygon class="fil6" points="17409.31,3512.23 17691.53,3512.23 17691.53,2348.07 17409.31,2348.07 "/>
   <path class="fil1" d="M18079.59 4958.62l742.46 1.63c167.86,-25.15 55.7,50.87 139.48,-107.46 -200.29,-96.11 -670.28,66.28 -670.28,-141.12l0 -564.44 -211.66 0 0 811.39z"/>
   <polygon class="fil6" points="9083.75,4958.62 9330.7,4958.62 9330.7,3970.84 9083.75,3970.84 "/>
   <path class="fil1" d="M13705.14 4253.06l0 705.56 246.95 0 0 -811.39 -141.12 0c-81.28,0 -105.83,24.55 -105.83,105.83z"/>
   <path class="fil6" d="M7072.92 619.46c307.22,-213.48 571.38,166.76 317.5,352.77 -128.46,116.4 -215.34,70.99 -317.5,0 -126.94,-93 -126.94,-259.76 0,-352.77zm-176.39 176.39c0,155.37 117.31,317.49 352.78,317.49 177.12,0 204.7,-100.85 317.5,-176.38l0 -282.23c-13.86,-9.28 -330.46,-345.23 -575.87,-81.98 -43.57,46.74 -94.41,154.6 -94.41,223.1z"/>
   <path class="fil1" d="M7178.75 690.01l105.84 0 0 70.56 -105.84 0 0 -70.56zm-105.83 282.22l105.83 0 0 -141.11c161.74,108.31 32.77,121.54 211.67,141.11l-23.65 -46.88c-43.7,-63.26 -15.59,-24.39 -46.9,-58.95 56.25,-210.7 92.25,-2.37 35.27,-246.94l-282.22 0 0 352.77z"/>
   <polygon class="fil6" points="8942.64,6263.89 8907.36,6263.89 8936.76,6305.05 "/>
  </g>
 </g>
</svg>
